<svg width="512" height="512" viewBox="0 0 512 512" fill="none" xmlns="http://www.w3.org/2000/svg" role="img" aria-label="NexxaLife mark">
  <defs>
    <linearGradient id="nl-core" x1="96" y1="78" x2="416" y2="434" gradientUnits="userSpaceOnUse">
      <stop offset="0" stop-color="#4BC7F5"/>
      <stop offset="0.46" stop-color="#16B8A6"/>
      <stop offset="1" stop-color="#18C58F"/>
    </linearGradient>
    <radialGradient id="nl-glow" cx="0" cy="0" r="1" gradientUnits="userSpaceOnUse" gradientTransform="translate(170 126) rotate(48) scale(370)">
      <stop stop-color="white" stop-opacity=".92"/>
      <stop offset=".45" stop-color="#DDFBF4" stop-opacity=".42"/>
      <stop offset="1" stop-color="#16B8A6" stop-opacity="0"/>
    </radialGradient>
    <filter id="soft-shadow" x="42" y="44" width="428" height="428" color-interpolation-filters="sRGB">
      <feDropShadow dx="0" dy="24" stdDeviation="24" flood-color="#062225" flood-opacity=".22"/>
    </filter>
  </defs>
  <rect width="512" height="512" rx="128" fill="transparent"/>
  <circle cx="256" cy="256" r="210" fill="url(#nl-glow)" opacity=".45"/>
  <g filter="url(#soft-shadow)">
    <path d="M122 350V162c0-23 29-34 45-17l150 161V163h73v187c0 23-29 34-45 17L195 206v144h-73Z" fill="#101820"/>
    <path d="M122 350V162c0-23 29-34 45-17l150 161V163h73v187c0 23-29 34-45 17L195 206v144h-73Z" fill="white" opacity=".08"/>
    <path d="M147 363c52-8 97-30 134-65 37-35 61-78 74-129" stroke="white" stroke-width="18" stroke-linecap="round" opacity=".72"/>
    <circle cx="370" cy="151" r="20" fill="#101820"/>
  </g>
</svg>